<?xml version="1.0" encoding="UTF-8" standalone="no"?>
<!DOCTYPE svg PUBLIC "-//W3C//DTD SVG 1.1//EN"
 "http://www.w3.org/Graphics/SVG/1.1/DTD/svg11.dtd">
<!-- Generated by graphviz version 8.1.0 (20230707.2238)
 -->
<!-- Pages: 1 -->
<svg width="1468pt" height="210pt"
 viewBox="0.00 0.00 1467.50 210.00" xmlns="http://www.w3.org/2000/svg" xmlns:xlink="http://www.w3.org/1999/xlink">
<g id="graph0" class="graph" transform="scale(1 1) rotate(0) translate(4 206)">
<polygon fill="white" stroke="none" points="-4,4 -4,-206 1463.5,-206 1463.5,4 -4,4"/>
<!-- 140100780850720 -->
<g id="node1" class="node">
<title>140100780850720</title>
<polygon fill="none" stroke="black" points="1230,-109.5 1230,-145.5 1459.5,-145.5 1459.5,-109.5 1230,-109.5"/>
<text text-anchor="middle" x="1242.5" y="-123.2" font-family="Times,serif" font-size="14.00">n</text>
<polyline fill="none" stroke="black" points="1255,-110.25 1255,-145.5"/>
<text text-anchor="middle" x="1305.75" y="-123.2" font-family="Times,serif" font-size="14.00">data 0.7000</text>
<polyline fill="none" stroke="black" points="1356.5,-110.25 1356.5,-145.5"/>
<text text-anchor="middle" x="1408" y="-123.2" font-family="Times,serif" font-size="14.00">grad 0.0000</text>
</g>
<!-- 140100780850720+ -->
<g id="node2" class="node">
<title>140100780850720+</title>
<ellipse fill="none" stroke="black" cx="1167" cy="-127.5" rx="27" ry="18"/>
<text text-anchor="middle" x="1167" y="-122.83" font-family="Times,serif" font-size="14.00">+</text>
</g>
<!-- 140100780850720+&#45;&gt;140100780850720 -->
<g id="edge1" class="edge">
<title>140100780850720+&#45;&gt;140100780850720</title>
<path fill="none" stroke="black" d="M1194.31,-127.5C1201.61,-127.5 1210.04,-127.5 1219.11,-127.5"/>
<polygon fill="black" stroke="black" points="1219.02,-131 1229.02,-127.5 1219.02,-124 1219.02,-131"/>
</g>
<!-- 140100782708800 -->
<g id="node3" class="node">
<title>140100782708800</title>
<polygon fill="none" stroke="black" points="4.12,-55.5 4.12,-91.5 241.88,-91.5 241.88,-55.5 4.12,-55.5"/>
<text text-anchor="middle" x="20.75" y="-69.2" font-family="Times,serif" font-size="14.00">x2</text>
<polyline fill="none" stroke="black" points="37.38,-56.25 37.38,-91.5"/>
<text text-anchor="middle" x="88.12" y="-69.2" font-family="Times,serif" font-size="14.00">data 0.0000</text>
<polyline fill="none" stroke="black" points="138.88,-56.25 138.88,-91.5"/>
<text text-anchor="middle" x="190.38" y="-69.2" font-family="Times,serif" font-size="14.00">grad 0.0000</text>
</g>
<!-- 140100780850528* -->
<g id="node10" class="node">
<title>140100780850528*</title>
<ellipse fill="none" stroke="black" cx="309" cy="-73.5" rx="27" ry="18"/>
<text text-anchor="middle" x="309" y="-68.83" font-family="Times,serif" font-size="14.00">*</text>
</g>
<!-- 140100782708800&#45;&gt;140100780850528* -->
<g id="edge12" class="edge">
<title>140100782708800&#45;&gt;140100780850528*</title>
<path fill="none" stroke="black" d="M241.83,-73.5C252.18,-73.5 262.06,-73.5 270.87,-73.5"/>
<polygon fill="black" stroke="black" points="270.8,-77 280.8,-73.5 270.8,-70 270.8,-77"/>
</g>
<!-- 140100780850288 -->
<g id="node4" class="node">
<title>140100780850288</title>
<polygon fill="none" stroke="black" points="372,-110.5 372,-146.5 642,-146.5 642,-110.5 372,-110.5"/>
<text text-anchor="middle" x="402.5" y="-124.2" font-family="Times,serif" font-size="14.00">x1*w1</text>
<polyline fill="none" stroke="black" points="433,-111.25 433,-146.5"/>
<text text-anchor="middle" x="486" y="-124.2" font-family="Times,serif" font-size="14.00">data &#45;6.0000</text>
<polyline fill="none" stroke="black" points="539,-111.25 539,-146.5"/>
<text text-anchor="middle" x="590.5" y="-124.2" font-family="Times,serif" font-size="14.00">grad 0.0000</text>
</g>
<!-- 140100780850624+ -->
<g id="node13" class="node">
<title>140100780850624+</title>
<ellipse fill="none" stroke="black" cx="705" cy="-100.5" rx="27" ry="18"/>
<text text-anchor="middle" x="705" y="-95.83" font-family="Times,serif" font-size="14.00">+</text>
</g>
<!-- 140100780850288&#45;&gt;140100780850624+ -->
<g id="edge8" class="edge">
<title>140100780850288&#45;&gt;140100780850624+</title>
<path fill="none" stroke="black" d="M633.79,-110.53C645.93,-108.8 657.44,-107.15 667.5,-105.71"/>
<polygon fill="black" stroke="black" points="667.8,-109.06 677.2,-104.19 666.81,-102.14 667.8,-109.06"/>
</g>
<!-- 140100780850288* -->
<g id="node5" class="node">
<title>140100780850288*</title>
<ellipse fill="none" stroke="black" cx="309" cy="-128.5" rx="27" ry="18"/>
<text text-anchor="middle" x="309" y="-123.83" font-family="Times,serif" font-size="14.00">*</text>
</g>
<!-- 140100780850288*&#45;&gt;140100780850288 -->
<g id="edge2" class="edge">
<title>140100780850288*&#45;&gt;140100780850288</title>
<path fill="none" stroke="black" d="M336.43,-128.5C343.8,-128.5 352.35,-128.5 361.62,-128.5"/>
<polygon fill="black" stroke="black" points="361.36,-132 371.36,-128.5 361.36,-125 361.36,-132"/>
</g>
<!-- 140100780834928 -->
<g id="node6" class="node">
<title>140100780834928</title>
<polygon fill="none" stroke="black" points="0,-165.5 0,-201.5 246,-201.5 246,-165.5 0,-165.5"/>
<text text-anchor="middle" x="18.5" y="-179.2" font-family="Times,serif" font-size="14.00">w1</text>
<polyline fill="none" stroke="black" points="37,-166.25 37,-201.5"/>
<text text-anchor="middle" x="90" y="-179.2" font-family="Times,serif" font-size="14.00">data &#45;3.0000</text>
<polyline fill="none" stroke="black" points="143,-166.25 143,-201.5"/>
<text text-anchor="middle" x="194.5" y="-179.2" font-family="Times,serif" font-size="14.00">grad 0.0000</text>
</g>
<!-- 140100780834928&#45;&gt;140100780850288* -->
<g id="edge7" class="edge">
<title>140100780834928&#45;&gt;140100780850288*</title>
<path fill="none" stroke="black" d="M214.85,-165.58C225.44,-162.85 236.02,-159.82 246,-156.5 256.4,-153.04 267.4,-148.41 277.21,-143.92"/>
<polygon fill="black" stroke="black" points="278.37,-146.77 285.92,-139.33 275.38,-140.44 278.37,-146.77"/>
</g>
<!-- 140100780834976 -->
<g id="node7" class="node">
<title>140100780834976</title>
<polygon fill="none" stroke="black" points="2.25,-0.5 2.25,-36.5 243.75,-36.5 243.75,-0.5 2.25,-0.5"/>
<text text-anchor="middle" x="20.75" y="-14.2" font-family="Times,serif" font-size="14.00">w2</text>
<polyline fill="none" stroke="black" points="39.25,-1.25 39.25,-36.5"/>
<text text-anchor="middle" x="90" y="-14.2" font-family="Times,serif" font-size="14.00">data 1.0000</text>
<polyline fill="none" stroke="black" points="140.75,-1.25 140.75,-36.5"/>
<text text-anchor="middle" x="192.25" y="-14.2" font-family="Times,serif" font-size="14.00">grad 0.0000</text>
</g>
<!-- 140100780834976&#45;&gt;140100780850528* -->
<g id="edge9" class="edge">
<title>140100780834976&#45;&gt;140100780850528*</title>
<path fill="none" stroke="black" d="M211.19,-36.43C222.98,-39.46 234.85,-42.83 246,-46.5 256.15,-49.84 266.93,-54.23 276.6,-58.48"/>
<polygon fill="black" stroke="black" points="275.02,-62.06 285.58,-63 277.91,-55.69 275.02,-62.06"/>
</g>
<!-- 140100780850960 -->
<g id="node8" class="node">
<title>140100780850960</title>
<polygon fill="none" stroke="black" points="4.12,-110.5 4.12,-146.5 241.88,-146.5 241.88,-110.5 4.12,-110.5"/>
<text text-anchor="middle" x="20.75" y="-124.2" font-family="Times,serif" font-size="14.00">x1</text>
<polyline fill="none" stroke="black" points="37.38,-111.25 37.38,-146.5"/>
<text text-anchor="middle" x="88.12" y="-124.2" font-family="Times,serif" font-size="14.00">data 2.0000</text>
<polyline fill="none" stroke="black" points="138.88,-111.25 138.88,-146.5"/>
<text text-anchor="middle" x="190.38" y="-124.2" font-family="Times,serif" font-size="14.00">grad 0.0000</text>
</g>
<!-- 140100780850960&#45;&gt;140100780850288* -->
<g id="edge5" class="edge">
<title>140100780850960&#45;&gt;140100780850288*</title>
<path fill="none" stroke="black" d="M241.83,-128.5C252.18,-128.5 262.06,-128.5 270.87,-128.5"/>
<polygon fill="black" stroke="black" points="270.8,-132 280.8,-128.5 270.8,-125 270.8,-132"/>
</g>
<!-- 140100780850528 -->
<g id="node9" class="node">
<title>140100780850528</title>
<polygon fill="none" stroke="black" points="374.25,-55.5 374.25,-91.5 639.75,-91.5 639.75,-55.5 374.25,-55.5"/>
<text text-anchor="middle" x="404.75" y="-69.2" font-family="Times,serif" font-size="14.00">x2*w2</text>
<polyline fill="none" stroke="black" points="435.25,-56.25 435.25,-91.5"/>
<text text-anchor="middle" x="486" y="-69.2" font-family="Times,serif" font-size="14.00">data 0.0000</text>
<polyline fill="none" stroke="black" points="536.75,-56.25 536.75,-91.5"/>
<text text-anchor="middle" x="588.25" y="-69.2" font-family="Times,serif" font-size="14.00">grad 0.0000</text>
</g>
<!-- 140100780850528&#45;&gt;140100780850624+ -->
<g id="edge6" class="edge">
<title>140100780850528&#45;&gt;140100780850624+</title>
<path fill="none" stroke="black" d="M638.46,-91.47C648.85,-92.9 658.69,-94.26 667.43,-95.46"/>
<polygon fill="black" stroke="black" points="666.87,-99.06 677.25,-96.95 667.82,-92.12 666.87,-99.06"/>
</g>
<!-- 140100780850528*&#45;&gt;140100780850528 -->
<g id="edge3" class="edge">
<title>140100780850528*&#45;&gt;140100780850528</title>
<path fill="none" stroke="black" d="M336.43,-73.5C344.34,-73.5 353.62,-73.5 363.69,-73.5"/>
<polygon fill="black" stroke="black" points="363.44,-77 373.44,-73.5 363.44,-70 363.44,-77"/>
</g>
<!-- 140100780847024 -->
<g id="node11" class="node">
<title>140100780847024</title>
<polygon fill="none" stroke="black" points="821.25,-137.5 821.25,-173.5 1050.75,-173.5 1050.75,-137.5 821.25,-137.5"/>
<text text-anchor="middle" x="833.75" y="-151.2" font-family="Times,serif" font-size="14.00">b</text>
<polyline fill="none" stroke="black" points="846.25,-138.25 846.25,-173.5"/>
<text text-anchor="middle" x="897" y="-151.2" font-family="Times,serif" font-size="14.00">data 6.7000</text>
<polyline fill="none" stroke="black" points="947.75,-138.25 947.75,-173.5"/>
<text text-anchor="middle" x="999.25" y="-151.2" font-family="Times,serif" font-size="14.00">grad 0.0000</text>
</g>
<!-- 140100780847024&#45;&gt;140100780850720+ -->
<g id="edge11" class="edge">
<title>140100780847024&#45;&gt;140100780850720+</title>
<path fill="none" stroke="black" d="M1050.49,-141.62C1079.23,-138.11 1108.04,-134.59 1129.71,-131.94"/>
<polygon fill="black" stroke="black" points="1129.84,-135.32 1139.34,-130.64 1128.99,-128.38 1129.84,-135.32"/>
</g>
<!-- 140100780850624 -->
<g id="node12" class="node">
<title>140100780850624</title>
<polygon fill="none" stroke="black" points="768,-82.5 768,-118.5 1104,-118.5 1104,-82.5 768,-82.5"/>
<text text-anchor="middle" x="831.5" y="-96.2" font-family="Times,serif" font-size="14.00">x1*w1 + x2*w2</text>
<polyline fill="none" stroke="black" points="895,-83.25 895,-118.5"/>
<text text-anchor="middle" x="948" y="-96.2" font-family="Times,serif" font-size="14.00">data &#45;6.0000</text>
<polyline fill="none" stroke="black" points="1001,-83.25 1001,-118.5"/>
<text text-anchor="middle" x="1052.5" y="-96.2" font-family="Times,serif" font-size="14.00">grad 0.0000</text>
</g>
<!-- 140100780850624&#45;&gt;140100780850720+ -->
<g id="edge10" class="edge">
<title>140100780850624&#45;&gt;140100780850720+</title>
<path fill="none" stroke="black" d="M1089.43,-118.47C1104,-120.19 1117.65,-121.8 1129.27,-123.17"/>
<polygon fill="black" stroke="black" points="1128.83,-126.76 1139.17,-124.46 1129.65,-119.81 1128.83,-126.76"/>
</g>
<!-- 140100780850624+&#45;&gt;140100780850624 -->
<g id="edge4" class="edge">
<title>140100780850624+&#45;&gt;140100780850624</title>
<path fill="none" stroke="black" d="M732.27,-100.5C739.52,-100.5 747.98,-100.5 757.24,-100.5"/>
<polygon fill="black" stroke="black" points="757.01,-104 767.01,-100.5 757.01,-97 757.01,-104"/>
</g>
</g>
</svg>
