<?xml version="1.0" encoding="UTF-8" standalone="no"?>
<!DOCTYPE svg PUBLIC "-//W3C//DTD SVG 1.1//EN"
 "http://www.w3.org/Graphics/SVG/1.1/DTD/svg11.dtd">
<!-- Generated by graphviz version 8.1.0 (20230707.2238)
 -->
<!-- Pages: 1 -->
<svg width="1339pt" height="154pt"
 viewBox="0.00 0.00 1339.25 154.00" xmlns="http://www.w3.org/2000/svg" xmlns:xlink="http://www.w3.org/1999/xlink">
<g id="graph0" class="graph" transform="scale(1 1) rotate(0) translate(4 150)">
<polygon fill="white" stroke="none" points="-4,4 -4,-150 1335.25,-150 1335.25,4 -4,4"/>
<!-- 140102975583856 -->
<g id="node1" class="node">
<title>140102975583856</title>
<polygon fill="none" stroke="black" points="364.5,-27.5 364.5,-63.5 602.25,-63.5 602.25,-27.5 364.5,-27.5"/>
<text text-anchor="middle" x="376.62" y="-41.2" font-family="Times,serif" font-size="14.00">e</text>
<polyline fill="none" stroke="black" points="388.75,-28.25 388.75,-63.5"/>
<text text-anchor="middle" x="441.75" y="-41.2" font-family="Times,serif" font-size="14.00">data &#45;8.2500</text>
<polyline fill="none" stroke="black" points="494.75,-28.25 494.75,-63.5"/>
<text text-anchor="middle" x="548.5" y="-41.2" font-family="Times,serif" font-size="14.00">grad &#45;2.2000</text>
</g>
<!-- 140102975577712+ -->
<g id="node4" class="node">
<title>140102975577712+</title>
<ellipse fill="none" stroke="black" cx="665.25" cy="-72.5" rx="27" ry="18"/>
<text text-anchor="middle" x="665.25" y="-67.83" font-family="Times,serif" font-size="14.00">+</text>
</g>
<!-- 140102975583856&#45;&gt;140102975577712+ -->
<g id="edge7" class="edge">
<title>140102975583856&#45;&gt;140102975577712+</title>
<path fill="none" stroke="black" d="M602.1,-63.17C611.2,-64.54 619.89,-65.84 627.72,-67.02"/>
<polygon fill="black" stroke="black" points="627.14,-70.62 637.55,-68.64 628.18,-63.7 627.14,-70.62"/>
</g>
<!-- 140102975583856* -->
<g id="node2" class="node">
<title>140102975583856*</title>
<ellipse fill="none" stroke="black" cx="301.5" cy="-45.5" rx="27" ry="18"/>
<text text-anchor="middle" x="301.5" y="-40.83" font-family="Times,serif" font-size="14.00">*</text>
</g>
<!-- 140102975583856*&#45;&gt;140102975583856 -->
<g id="edge1" class="edge">
<title>140102975583856*&#45;&gt;140102975583856</title>
<path fill="none" stroke="black" d="M328.66,-45.5C336.09,-45.5 344.72,-45.5 354.03,-45.5"/>
<polygon fill="black" stroke="black" points="353.79,-49 363.79,-45.5 353.79,-42 353.79,-49"/>
</g>
<!-- 140102975577712 -->
<g id="node3" class="node">
<title>140102975577712</title>
<polygon fill="none" stroke="black" points="728.25,-54.5 728.25,-90.5 966.75,-90.5 966.75,-54.5 728.25,-54.5"/>
<text text-anchor="middle" x="740.75" y="-68.2" font-family="Times,serif" font-size="14.00">d</text>
<polyline fill="none" stroke="black" points="753.25,-55.25 753.25,-90.5"/>
<text text-anchor="middle" x="806.25" y="-68.2" font-family="Times,serif" font-size="14.00">data &#45;8.0500</text>
<polyline fill="none" stroke="black" points="859.25,-55.25 859.25,-90.5"/>
<text text-anchor="middle" x="913" y="-68.2" font-family="Times,serif" font-size="14.00">grad &#45;2.2000</text>
</g>
<!-- 140102975577904* -->
<g id="node8" class="node">
<title>140102975577904*</title>
<ellipse fill="none" stroke="black" cx="1029.75" cy="-99.5" rx="27" ry="18"/>
<text text-anchor="middle" x="1029.75" y="-94.83" font-family="Times,serif" font-size="14.00">*</text>
</g>
<!-- 140102975577712&#45;&gt;140102975577904* -->
<g id="edge9" class="edge">
<title>140102975577712&#45;&gt;140102975577904*</title>
<path fill="none" stroke="black" d="M966.72,-90.21C975.81,-91.57 984.48,-92.87 992.31,-94.04"/>
<polygon fill="black" stroke="black" points="991.7,-97.64 1002.11,-95.66 992.74,-90.72 991.7,-97.64"/>
</g>
<!-- 140102975577712+&#45;&gt;140102975577712 -->
<g id="edge2" class="edge">
<title>140102975577712+&#45;&gt;140102975577712</title>
<path fill="none" stroke="black" d="M692.46,-72.5C699.76,-72.5 708.21,-72.5 717.32,-72.5"/>
<polygon fill="black" stroke="black" points="717.29,-76 727.29,-72.5 717.29,-69 717.29,-76"/>
</g>
<!-- 140102975583904 -->
<g id="node5" class="node">
<title>140102975583904</title>
<polygon fill="none" stroke="black" points="0,-55.5 0,-91.5 238.5,-91.5 238.5,-55.5 0,-55.5"/>
<text text-anchor="middle" x="12.5" y="-69.2" font-family="Times,serif" font-size="14.00">b</text>
<polyline fill="none" stroke="black" points="25,-56.25 25,-91.5"/>
<text text-anchor="middle" x="78" y="-69.2" font-family="Times,serif" font-size="14.00">data &#45;5.5000</text>
<polyline fill="none" stroke="black" points="131,-56.25 131,-91.5"/>
<text text-anchor="middle" x="184.75" y="-69.2" font-family="Times,serif" font-size="14.00">grad &#45;3.3000</text>
</g>
<!-- 140102975583904&#45;&gt;140102975583856* -->
<g id="edge4" class="edge">
<title>140102975583904&#45;&gt;140102975583856*</title>
<path fill="none" stroke="black" d="M235.93,-55.53C246.04,-53.96 255.68,-52.46 264.28,-51.13"/>
<polygon fill="black" stroke="black" points="264.6,-54.46 273.95,-49.47 263.53,-47.55 264.6,-54.46"/>
</g>
<!-- 140102975583520 -->
<g id="node6" class="node">
<title>140102975583520</title>
<polygon fill="none" stroke="black" points="0.38,-0.5 0.38,-36.5 238.12,-36.5 238.12,-0.5 0.38,-0.5"/>
<text text-anchor="middle" x="12.5" y="-14.2" font-family="Times,serif" font-size="14.00">a</text>
<polyline fill="none" stroke="black" points="24.62,-1.25 24.62,-36.5"/>
<text text-anchor="middle" x="75.38" y="-14.2" font-family="Times,serif" font-size="14.00">data 1.5000</text>
<polyline fill="none" stroke="black" points="126.12,-1.25 126.12,-36.5"/>
<text text-anchor="middle" x="182.12" y="-14.2" font-family="Times,serif" font-size="14.00">grad 12.1000</text>
</g>
<!-- 140102975583520&#45;&gt;140102975583856* -->
<g id="edge5" class="edge">
<title>140102975583520&#45;&gt;140102975583856*</title>
<path fill="none" stroke="black" d="M237.96,-36.13C247.23,-37.52 256.06,-38.84 264.01,-40.03"/>
<polygon fill="black" stroke="black" points="263.22,-43.6 273.63,-41.62 264.26,-36.68 263.22,-43.6"/>
</g>
<!-- 140102975577904 -->
<g id="node7" class="node">
<title>140102975577904</title>
<polygon fill="none" stroke="black" points="1092.75,-81.5 1092.75,-117.5 1331.25,-117.5 1331.25,-81.5 1092.75,-81.5"/>
<text text-anchor="middle" x="1105.25" y="-95.2" font-family="Times,serif" font-size="14.00">L</text>
<polyline fill="none" stroke="black" points="1117.75,-82.25 1117.75,-117.5"/>
<text text-anchor="middle" x="1173" y="-95.2" font-family="Times,serif" font-size="14.00">data 17.7100</text>
<polyline fill="none" stroke="black" points="1228.25,-82.25 1228.25,-117.5"/>
<text text-anchor="middle" x="1279.75" y="-95.2" font-family="Times,serif" font-size="14.00">grad 1.0000</text>
</g>
<!-- 140102975577904*&#45;&gt;140102975577904 -->
<g id="edge3" class="edge">
<title>140102975577904*&#45;&gt;140102975577904</title>
<path fill="none" stroke="black" d="M1056.96,-99.5C1064.26,-99.5 1072.71,-99.5 1081.82,-99.5"/>
<polygon fill="black" stroke="black" points="1081.79,-103 1091.79,-99.5 1081.79,-96 1081.79,-103"/>
</g>
<!-- 140102975574400 -->
<g id="node9" class="node">
<title>140102975574400</title>
<polygon fill="none" stroke="black" points="367.12,-82.5 367.12,-118.5 599.62,-118.5 599.62,-82.5 367.12,-82.5"/>
<text text-anchor="middle" x="378.88" y="-96.2" font-family="Times,serif" font-size="14.00">c</text>
<polyline fill="none" stroke="black" points="390.62,-83.25 390.62,-118.5"/>
<text text-anchor="middle" x="441.38" y="-96.2" font-family="Times,serif" font-size="14.00">data 0.2000</text>
<polyline fill="none" stroke="black" points="492.12,-83.25 492.12,-118.5"/>
<text text-anchor="middle" x="545.88" y="-96.2" font-family="Times,serif" font-size="14.00">grad &#45;2.2000</text>
</g>
<!-- 140102975574400&#45;&gt;140102975577712+ -->
<g id="edge6" class="edge">
<title>140102975574400&#45;&gt;140102975577712+</title>
<path fill="none" stroke="black" d="M599.57,-82.57C609.68,-80.99 619.34,-79.49 627.95,-78.15"/>
<polygon fill="black" stroke="black" points="628.3,-81.48 637.64,-76.49 627.22,-74.57 628.3,-81.48"/>
</g>
<!-- 140102975573392 -->
<g id="node10" class="node">
<title>140102975573392</title>
<polygon fill="none" stroke="black" points="730.12,-109.5 730.12,-145.5 964.88,-145.5 964.88,-109.5 730.12,-109.5"/>
<text text-anchor="middle" x="740.75" y="-123.2" font-family="Times,serif" font-size="14.00">f</text>
<polyline fill="none" stroke="black" points="751.38,-110.25 751.38,-145.5"/>
<text text-anchor="middle" x="804.38" y="-123.2" font-family="Times,serif" font-size="14.00">data &#45;2.2000</text>
<polyline fill="none" stroke="black" points="857.38,-110.25 857.38,-145.5"/>
<text text-anchor="middle" x="911.12" y="-123.2" font-family="Times,serif" font-size="14.00">grad &#45;8.0500</text>
</g>
<!-- 140102975573392&#45;&gt;140102975577904* -->
<g id="edge8" class="edge">
<title>140102975573392&#45;&gt;140102975577904*</title>
<path fill="none" stroke="black" d="M964.18,-109.53C974.29,-107.96 983.93,-106.46 992.53,-105.13"/>
<polygon fill="black" stroke="black" points="992.85,-108.46 1002.2,-103.47 991.78,-101.55 992.85,-108.46"/>
</g>
</g>
</svg>
