<?xml version="1.0" encoding="UTF-8" standalone="no"?>
<!DOCTYPE svg PUBLIC "-//W3C//DTD SVG 1.1//EN"
 "http://www.w3.org/Graphics/SVG/1.1/DTD/svg11.dtd">
<!-- Generated by graphviz version 8.1.0 (20230707.2238)
 -->
<!-- Pages: 1 -->
<svg width="1326pt" height="154pt"
 viewBox="0.00 0.00 1325.75 154.00" xmlns="http://www.w3.org/2000/svg" xmlns:xlink="http://www.w3.org/1999/xlink">
<g id="graph0" class="graph" transform="scale(1 1) rotate(0) translate(4 150)">
<polygon fill="white" stroke="none" points="-4,4 -4,-150 1321.75,-150 1321.75,4 -4,4"/>
<!-- 140102975583856 -->
<g id="node1" class="node">
<title>140102975583856</title>
<polygon fill="none" stroke="black" points="360,-27.5 360,-63.5 593.25,-63.5 593.25,-27.5 360,-27.5"/>
<text text-anchor="middle" x="372.12" y="-41.2" font-family="Times,serif" font-size="14.00">e</text>
<polyline fill="none" stroke="black" points="384.25,-28.25 384.25,-63.5"/>
<text text-anchor="middle" x="437.25" y="-41.2" font-family="Times,serif" font-size="14.00">data &#45;8.2500</text>
<polyline fill="none" stroke="black" points="490.25,-28.25 490.25,-63.5"/>
<text text-anchor="middle" x="541.75" y="-41.2" font-family="Times,serif" font-size="14.00">grad 0.0000</text>
</g>
<!-- 140102975577712+ -->
<g id="node4" class="node">
<title>140102975577712+</title>
<ellipse fill="none" stroke="black" cx="656.25" cy="-72.5" rx="27" ry="18"/>
<text text-anchor="middle" x="656.25" y="-67.83" font-family="Times,serif" font-size="14.00">+</text>
</g>
<!-- 140102975583856&#45;&gt;140102975577712+ -->
<g id="edge7" class="edge">
<title>140102975583856&#45;&gt;140102975577712+</title>
<path fill="none" stroke="black" d="M593.13,-63.06C602.21,-64.44 610.88,-65.76 618.71,-66.95"/>
<polygon fill="black" stroke="black" points="618.12,-70.55 628.53,-68.59 619.17,-63.63 618.12,-70.55"/>
</g>
<!-- 140102975583856* -->
<g id="node2" class="node">
<title>140102975583856*</title>
<ellipse fill="none" stroke="black" cx="297" cy="-45.5" rx="27" ry="18"/>
<text text-anchor="middle" x="297" y="-40.83" font-family="Times,serif" font-size="14.00">*</text>
</g>
<!-- 140102975583856*&#45;&gt;140102975583856 -->
<g id="edge1" class="edge">
<title>140102975583856*&#45;&gt;140102975583856</title>
<path fill="none" stroke="black" d="M324.21,-45.5C331.64,-45.5 340.26,-45.5 349.55,-45.5"/>
<polygon fill="black" stroke="black" points="349.29,-49 359.29,-45.5 349.29,-42 349.29,-49"/>
</g>
<!-- 140102975577712 -->
<g id="node3" class="node">
<title>140102975577712</title>
<polygon fill="none" stroke="black" points="719.25,-54.5 719.25,-90.5 953.25,-90.5 953.25,-54.5 719.25,-54.5"/>
<text text-anchor="middle" x="731.75" y="-68.2" font-family="Times,serif" font-size="14.00">d</text>
<polyline fill="none" stroke="black" points="744.25,-55.25 744.25,-90.5"/>
<text text-anchor="middle" x="797.25" y="-68.2" font-family="Times,serif" font-size="14.00">data &#45;8.0500</text>
<polyline fill="none" stroke="black" points="850.25,-55.25 850.25,-90.5"/>
<text text-anchor="middle" x="901.75" y="-68.2" font-family="Times,serif" font-size="14.00">grad 0.0000</text>
</g>
<!-- 140102975577904* -->
<g id="node8" class="node">
<title>140102975577904*</title>
<ellipse fill="none" stroke="black" cx="1016.25" cy="-99.5" rx="27" ry="18"/>
<text text-anchor="middle" x="1016.25" y="-94.83" font-family="Times,serif" font-size="14.00">*</text>
</g>
<!-- 140102975577712&#45;&gt;140102975577904* -->
<g id="edge9" class="edge">
<title>140102975577712&#45;&gt;140102975577904*</title>
<path fill="none" stroke="black" d="M952.99,-90.06C962.1,-91.44 970.79,-92.76 978.63,-93.95"/>
<polygon fill="black" stroke="black" points="978.06,-97.55 988.47,-95.59 979.11,-90.63 978.06,-97.55"/>
</g>
<!-- 140102975577712+&#45;&gt;140102975577712 -->
<g id="edge2" class="edge">
<title>140102975577712+&#45;&gt;140102975577712</title>
<path fill="none" stroke="black" d="M683.51,-72.5C690.81,-72.5 699.26,-72.5 708.35,-72.5"/>
<polygon fill="black" stroke="black" points="708.29,-76 718.29,-72.5 708.29,-69 708.29,-76"/>
</g>
<!-- 140102975583904 -->
<g id="node5" class="node">
<title>140102975583904</title>
<polygon fill="none" stroke="black" points="0,-55.5 0,-91.5 234,-91.5 234,-55.5 0,-55.5"/>
<text text-anchor="middle" x="12.5" y="-69.2" font-family="Times,serif" font-size="14.00">b</text>
<polyline fill="none" stroke="black" points="25,-56.25 25,-91.5"/>
<text text-anchor="middle" x="78" y="-69.2" font-family="Times,serif" font-size="14.00">data &#45;5.5000</text>
<polyline fill="none" stroke="black" points="131,-56.25 131,-91.5"/>
<text text-anchor="middle" x="182.5" y="-69.2" font-family="Times,serif" font-size="14.00">grad 0.0000</text>
</g>
<!-- 140102975583904&#45;&gt;140102975583856* -->
<g id="edge4" class="edge">
<title>140102975583904&#45;&gt;140102975583856*</title>
<path fill="none" stroke="black" d="M232.24,-55.53C242.02,-53.99 251.35,-52.52 259.71,-51.21"/>
<polygon fill="black" stroke="black" points="260.13,-54.53 269.46,-49.52 259.04,-47.61 260.13,-54.53"/>
</g>
<!-- 140102975583520 -->
<g id="node6" class="node">
<title>140102975583520</title>
<polygon fill="none" stroke="black" points="2.62,-0.5 2.62,-36.5 231.38,-36.5 231.38,-0.5 2.62,-0.5"/>
<text text-anchor="middle" x="14.75" y="-14.2" font-family="Times,serif" font-size="14.00">a</text>
<polyline fill="none" stroke="black" points="26.88,-1.25 26.88,-36.5"/>
<text text-anchor="middle" x="77.62" y="-14.2" font-family="Times,serif" font-size="14.00">data 1.5000</text>
<polyline fill="none" stroke="black" points="128.38,-1.25 128.38,-36.5"/>
<text text-anchor="middle" x="179.88" y="-14.2" font-family="Times,serif" font-size="14.00">grad 0.0000</text>
</g>
<!-- 140102975583520&#45;&gt;140102975583856* -->
<g id="edge5" class="edge">
<title>140102975583520&#45;&gt;140102975583856*</title>
<path fill="none" stroke="black" d="M231.23,-35.68C241.34,-37.21 251,-38.67 259.62,-39.98"/>
<polygon fill="black" stroke="black" points="258.91,-43.57 269.32,-41.61 259.96,-36.64 258.91,-43.57"/>
</g>
<!-- 140102975577904 -->
<g id="node7" class="node">
<title>140102975577904</title>
<polygon fill="none" stroke="black" points="1079.25,-81.5 1079.25,-117.5 1317.75,-117.5 1317.75,-81.5 1079.25,-81.5"/>
<text text-anchor="middle" x="1091.75" y="-95.2" font-family="Times,serif" font-size="14.00">L</text>
<polyline fill="none" stroke="black" points="1104.25,-82.25 1104.25,-117.5"/>
<text text-anchor="middle" x="1159.5" y="-95.2" font-family="Times,serif" font-size="14.00">data 17.7100</text>
<polyline fill="none" stroke="black" points="1214.75,-82.25 1214.75,-117.5"/>
<text text-anchor="middle" x="1266.25" y="-95.2" font-family="Times,serif" font-size="14.00">grad 0.0000</text>
</g>
<!-- 140102975577904*&#45;&gt;140102975577904 -->
<g id="edge3" class="edge">
<title>140102975577904*&#45;&gt;140102975577904</title>
<path fill="none" stroke="black" d="M1043.46,-99.5C1050.76,-99.5 1059.21,-99.5 1068.32,-99.5"/>
<polygon fill="black" stroke="black" points="1068.29,-103 1078.29,-99.5 1068.29,-96 1068.29,-103"/>
</g>
<!-- 140102975574400 -->
<g id="node9" class="node">
<title>140102975574400</title>
<polygon fill="none" stroke="black" points="362.62,-82.5 362.62,-118.5 590.62,-118.5 590.62,-82.5 362.62,-82.5"/>
<text text-anchor="middle" x="374.38" y="-96.2" font-family="Times,serif" font-size="14.00">c</text>
<polyline fill="none" stroke="black" points="386.12,-83.25 386.12,-118.5"/>
<text text-anchor="middle" x="436.88" y="-96.2" font-family="Times,serif" font-size="14.00">data 0.2000</text>
<polyline fill="none" stroke="black" points="487.62,-83.25 487.62,-118.5"/>
<text text-anchor="middle" x="539.12" y="-96.2" font-family="Times,serif" font-size="14.00">grad 0.0000</text>
</g>
<!-- 140102975574400&#45;&gt;140102975577712+ -->
<g id="edge6" class="edge">
<title>140102975574400&#45;&gt;140102975577712+</title>
<path fill="none" stroke="black" d="M590.62,-82.69C600.71,-81.1 610.34,-79.58 618.95,-78.22"/>
<polygon fill="black" stroke="black" points="619.29,-81.55 628.63,-76.54 618.2,-74.64 619.29,-81.55"/>
</g>
<!-- 140102975573392 -->
<g id="node10" class="node">
<title>140102975573392</title>
<polygon fill="none" stroke="black" points="721.12,-109.5 721.12,-145.5 951.38,-145.5 951.38,-109.5 721.12,-109.5"/>
<text text-anchor="middle" x="731.75" y="-123.2" font-family="Times,serif" font-size="14.00">f</text>
<polyline fill="none" stroke="black" points="742.38,-110.25 742.38,-145.5"/>
<text text-anchor="middle" x="795.38" y="-123.2" font-family="Times,serif" font-size="14.00">data &#45;2.2000</text>
<polyline fill="none" stroke="black" points="848.38,-110.25 848.38,-145.5"/>
<text text-anchor="middle" x="899.88" y="-123.2" font-family="Times,serif" font-size="14.00">grad 0.0000</text>
</g>
<!-- 140102975573392&#45;&gt;140102975577904* -->
<g id="edge8" class="edge">
<title>140102975573392&#45;&gt;140102975577904*</title>
<path fill="none" stroke="black" d="M951.24,-109.57C961.05,-108.03 970.41,-106.55 978.8,-105.23"/>
<polygon fill="black" stroke="black" points="979.26,-108.55 988.6,-103.54 978.18,-101.63 979.26,-108.55"/>
</g>
</g>
</svg>
