<?xml version="1.0" encoding="UTF-8" standalone="no"?>
<!DOCTYPE svg PUBLIC "-//W3C//DTD SVG 1.1//EN"
 "http://www.w3.org/Graphics/SVG/1.1/DTD/svg11.dtd">
<!-- Generated by graphviz version 8.1.0 (20230707.2238)
 -->
<!-- Pages: 1 -->
<svg width="592pt" height="45pt"
 viewBox="0.00 0.00 592.25 45.00" xmlns="http://www.w3.org/2000/svg" xmlns:xlink="http://www.w3.org/1999/xlink">
<g id="graph0" class="graph" transform="scale(1 1) rotate(0) translate(4 41)">
<polygon fill="white" stroke="none" points="-4,4 -4,-41 588.25,-41 588.25,4 -4,4"/>
<!-- 140100780848944 -->
<g id="node1" class="node">
<title>140100780848944</title>
<polygon fill="none" stroke="black" points="0,-0.5 0,-36.5 228.75,-36.5 228.75,-0.5 0,-0.5"/>
<text text-anchor="middle" x="12.12" y="-14.2" font-family="Times,serif" font-size="14.00">a</text>
<polyline fill="none" stroke="black" points="24.25,-1.25 24.25,-36.5"/>
<text text-anchor="middle" x="75" y="-14.2" font-family="Times,serif" font-size="14.00">data 3.0000</text>
<polyline fill="none" stroke="black" points="125.75,-1.25 125.75,-36.5"/>
<text text-anchor="middle" x="177.25" y="-14.2" font-family="Times,serif" font-size="14.00">grad 2.0000</text>
</g>
<!-- 140100780849760+ -->
<g id="node3" class="node">
<title>140100780849760+</title>
<ellipse fill="none" stroke="black" cx="291.75" cy="-18.5" rx="27" ry="18"/>
<text text-anchor="middle" x="291.75" y="-13.82" font-family="Times,serif" font-size="14.00">+</text>
</g>
<!-- 140100780848944&#45;&gt;140100780849760+ -->
<g id="edge2" class="edge">
<title>140100780848944&#45;&gt;140100780849760+</title>
<path fill="none" stroke="black" d="M228.43,-18.5C237.23,-18.5 245.66,-18.5 253.32,-18.5"/>
<polygon fill="black" stroke="black" points="253.29,-22 263.29,-18.5 253.29,-15 253.29,-22"/>
</g>
<!-- 140100780849760 -->
<g id="node2" class="node">
<title>140100780849760</title>
<polygon fill="none" stroke="black" points="354.75,-0.5 354.75,-36.5 584.25,-36.5 584.25,-0.5 354.75,-0.5"/>
<text text-anchor="middle" x="367.25" y="-14.2" font-family="Times,serif" font-size="14.00">b</text>
<polyline fill="none" stroke="black" points="379.75,-1.25 379.75,-36.5"/>
<text text-anchor="middle" x="430.5" y="-14.2" font-family="Times,serif" font-size="14.00">data 6.0000</text>
<polyline fill="none" stroke="black" points="481.25,-1.25 481.25,-36.5"/>
<text text-anchor="middle" x="532.75" y="-14.2" font-family="Times,serif" font-size="14.00">grad 1.0000</text>
</g>
<!-- 140100780849760+&#45;&gt;140100780849760 -->
<g id="edge1" class="edge">
<title>140100780849760+&#45;&gt;140100780849760</title>
<path fill="none" stroke="black" d="M319.06,-18.5C326.36,-18.5 334.79,-18.5 343.86,-18.5"/>
<polygon fill="black" stroke="black" points="343.77,-22 353.77,-18.5 343.77,-15 343.77,-22"/>
</g>
</g>
</svg>
