<?xml version="1.0" encoding="UTF-8" standalone="no"?>
<!DOCTYPE svg PUBLIC "-//W3C//DTD SVG 1.1//EN"
 "http://www.w3.org/Graphics/SVG/1.1/DTD/svg11.dtd">
<!-- Generated by graphviz version 8.1.0 (20230707.2238)
 -->
<!-- Pages: 1 -->
<svg width="3410pt" height="236pt"
 viewBox="0.00 0.00 3410.47 236.00" xmlns="http://www.w3.org/2000/svg" xmlns:xlink="http://www.w3.org/1999/xlink">
<g id="graph0" class="graph" transform="scale(1 1) rotate(0) translate(4 232)">
<polygon fill="white" stroke="none" points="-4,4 -4,-232 3406.47,-232 3406.47,4 -4,4"/>
<!-- 140100644442640 -->
<g id="node1" class="node">
<title>140100644442640</title>
<polygon fill="none" stroke="black" points="2561.72,-163.5 2561.72,-199.5 2786.72,-199.5 2786.72,-163.5 2561.72,-163.5"/>
<text text-anchor="middle" x="2571.97" y="-177.2" font-family="Times,serif" font-size="14.00"> </text>
<polyline fill="none" stroke="black" points="2582.22,-164.25 2582.22,-199.5"/>
<text text-anchor="middle" x="2632.97" y="-177.2" font-family="Times,serif" font-size="14.00">data 4.8284</text>
<polyline fill="none" stroke="black" points="2683.72,-164.25 2683.72,-199.5"/>
<text text-anchor="middle" x="2735.22" y="-177.2" font-family="Times,serif" font-size="14.00">grad 0.1464</text>
</g>
<!-- 140100644443888* -->
<g id="node17" class="node">
<title>140100644443888*</title>
<ellipse fill="none" stroke="black" cx="3110.72" cy="-153.5" rx="27" ry="18"/>
<text text-anchor="middle" x="3110.72" y="-148.82" font-family="Times,serif" font-size="14.00">*</text>
</g>
<!-- 140100644442640&#45;&gt;140100644443888* -->
<g id="edge17" class="edge">
<title>140100644442640&#45;&gt;140100644443888*</title>
<path fill="none" stroke="black" d="M2786.5,-175.18C2860.56,-170.83 2959.99,-164.75 3047.72,-158.5 3055.79,-157.93 3064.45,-157.26 3072.66,-156.6"/>
<polygon fill="black" stroke="black" points="3072.8,-160.02 3082.49,-155.73 3072.24,-153.05 3072.8,-160.02"/>
</g>
<!-- 140100644442640+ -->
<g id="node2" class="node">
<title>140100644442640+</title>
<ellipse fill="none" stroke="black" cx="2233.22" cy="-181.5" rx="27" ry="18"/>
<text text-anchor="middle" x="2233.22" y="-176.82" font-family="Times,serif" font-size="14.00">+</text>
</g>
<!-- 140100644442640+&#45;&gt;140100644442640 -->
<g id="edge1" class="edge">
<title>140100644442640+&#45;&gt;140100644442640</title>
<path fill="none" stroke="black" d="M2260.7,-181.5C2316.86,-181.5 2450.99,-181.5 2551.16,-181.5"/>
<polygon fill="black" stroke="black" points="2550.97,-185 2560.97,-181.5 2550.97,-178 2550.97,-185"/>
</g>
<!-- 140100644444128 -->
<g id="node3" class="node">
<title>140100644444128</title>
<polygon fill="none" stroke="black" points="2822.72,-112.5 2822.72,-148.5 3047.72,-148.5 3047.72,-112.5 2822.72,-112.5"/>
<text text-anchor="middle" x="2832.97" y="-126.2" font-family="Times,serif" font-size="14.00"> </text>
<polyline fill="none" stroke="black" points="2843.22,-113.25 2843.22,-148.5"/>
<text text-anchor="middle" x="2893.97" y="-126.2" font-family="Times,serif" font-size="14.00">data 0.1464</text>
<polyline fill="none" stroke="black" points="2944.72,-113.25 2944.72,-148.5"/>
<text text-anchor="middle" x="2996.22" y="-126.2" font-family="Times,serif" font-size="14.00">grad 4.8284</text>
</g>
<!-- 140100644444128&#45;&gt;140100644443888* -->
<g id="edge25" class="edge">
<title>140100644444128&#45;&gt;140100644443888*</title>
<path fill="none" stroke="black" d="M3047.58,-145.26C3056.62,-146.46 3065.28,-147.61 3073.1,-148.65"/>
<polygon fill="black" stroke="black" points="3072.55,-152.24 3082.93,-150.08 3073.47,-145.3 3072.55,-152.24"/>
</g>
<!-- 140100644444128**&#45;1 -->
<g id="node4" class="node">
<title>140100644444128**&#45;1</title>
<ellipse fill="none" stroke="black" cx="2674.22" cy="-126.5" rx="30.16" ry="18"/>
<text text-anchor="middle" x="2674.22" y="-121.83" font-family="Times,serif" font-size="14.00">**&#45;1</text>
</g>
<!-- 140100644444128**&#45;1&#45;&gt;140100644444128 -->
<g id="edge2" class="edge">
<title>140100644444128**&#45;1&#45;&gt;140100644444128</title>
<path fill="none" stroke="black" d="M2704.68,-126.95C2731.22,-127.36 2772.09,-128 2812.02,-128.61"/>
<polygon fill="black" stroke="black" points="2811.92,-132.13 2821.97,-128.78 2812.03,-125.13 2811.92,-132.13"/>
</g>
<!-- 140100782143040 -->
<g id="node5" class="node">
<title>140100782143040</title>
<polygon fill="none" stroke="black" points="4.12,-55.5 4.12,-91.5 241.88,-91.5 241.88,-55.5 4.12,-55.5"/>
<text text-anchor="middle" x="20.75" y="-69.2" font-family="Times,serif" font-size="14.00">x2</text>
<polyline fill="none" stroke="black" points="37.38,-56.25 37.38,-91.5"/>
<text text-anchor="middle" x="88.12" y="-69.2" font-family="Times,serif" font-size="14.00">data 0.0000</text>
<polyline fill="none" stroke="black" points="138.88,-56.25 138.88,-91.5"/>
<text text-anchor="middle" x="190.38" y="-69.2" font-family="Times,serif" font-size="14.00">grad 0.5000</text>
</g>
<!-- 140100644441824* -->
<g id="node15" class="node">
<title>140100644441824*</title>
<ellipse fill="none" stroke="black" cx="309" cy="-73.5" rx="27" ry="18"/>
<text text-anchor="middle" x="309" y="-68.83" font-family="Times,serif" font-size="14.00">*</text>
</g>
<!-- 140100782143040&#45;&gt;140100644441824* -->
<g id="edge13" class="edge">
<title>140100782143040&#45;&gt;140100644441824*</title>
<path fill="none" stroke="black" d="M241.83,-73.5C252.18,-73.5 262.06,-73.5 270.87,-73.5"/>
<polygon fill="black" stroke="black" points="270.8,-77 280.8,-73.5 270.8,-70 270.8,-77"/>
</g>
<!-- 140100644444752 -->
<g id="node6" class="node">
<title>140100644444752</title>
<polygon fill="none" stroke="black" points="1232.25,-164.5 1232.25,-200.5 1457.25,-200.5 1457.25,-164.5 1232.25,-164.5"/>
<text text-anchor="middle" x="1242.5" y="-178.2" font-family="Times,serif" font-size="14.00"> </text>
<polyline fill="none" stroke="black" points="1252.75,-165.25 1252.75,-200.5"/>
<text text-anchor="middle" x="1303.5" y="-178.2" font-family="Times,serif" font-size="14.00">data 2.0000</text>
<polyline fill="none" stroke="black" points="1354.25,-165.25 1354.25,-200.5"/>
<text text-anchor="middle" x="1405.75" y="-178.2" font-family="Times,serif" font-size="14.00">grad 0.2203</text>
</g>
<!-- 140100644442256* -->
<g id="node13" class="node">
<title>140100644442256*</title>
<ellipse fill="none" stroke="black" cx="1522.5" cy="-154.5" rx="27" ry="18"/>
<text text-anchor="middle" x="1522.5" y="-149.82" font-family="Times,serif" font-size="14.00">*</text>
</g>
<!-- 140100644444752&#45;&gt;140100644442256* -->
<g id="edge22" class="edge">
<title>140100644444752&#45;&gt;140100644442256*</title>
<path fill="none" stroke="black" d="M1457.06,-164.77C1467.1,-163.17 1476.7,-161.64 1485.28,-160.27"/>
<polygon fill="black" stroke="black" points="1485.6,-163.6 1494.93,-158.57 1484.5,-156.69 1485.6,-163.6"/>
</g>
<!-- 140100782145104 -->
<g id="node7" class="node">
<title>140100782145104</title>
<polygon fill="none" stroke="black" points="372,-110.5 372,-146.5 642,-146.5 642,-110.5 372,-110.5"/>
<text text-anchor="middle" x="402.5" y="-124.2" font-family="Times,serif" font-size="14.00">x1*w1</text>
<polyline fill="none" stroke="black" points="433,-111.25 433,-146.5"/>
<text text-anchor="middle" x="486" y="-124.2" font-family="Times,serif" font-size="14.00">data &#45;6.0000</text>
<polyline fill="none" stroke="black" points="539,-111.25 539,-146.5"/>
<text text-anchor="middle" x="590.5" y="-124.2" font-family="Times,serif" font-size="14.00">grad 0.5000</text>
</g>
<!-- 140100644440960+ -->
<g id="node27" class="node">
<title>140100644440960+</title>
<ellipse fill="none" stroke="black" cx="705" cy="-100.5" rx="27" ry="18"/>
<text text-anchor="middle" x="705" y="-95.83" font-family="Times,serif" font-size="14.00">+</text>
</g>
<!-- 140100782145104&#45;&gt;140100644440960+ -->
<g id="edge26" class="edge">
<title>140100782145104&#45;&gt;140100644440960+</title>
<path fill="none" stroke="black" d="M633.79,-110.53C645.93,-108.8 657.44,-107.15 667.5,-105.71"/>
<polygon fill="black" stroke="black" points="667.8,-109.06 677.2,-104.19 666.81,-102.14 667.8,-109.06"/>
</g>
<!-- 140100782145104* -->
<g id="node8" class="node">
<title>140100782145104*</title>
<ellipse fill="none" stroke="black" cx="309" cy="-128.5" rx="27" ry="18"/>
<text text-anchor="middle" x="309" y="-123.83" font-family="Times,serif" font-size="14.00">*</text>
</g>
<!-- 140100782145104*&#45;&gt;140100782145104 -->
<g id="edge3" class="edge">
<title>140100782145104*&#45;&gt;140100782145104</title>
<path fill="none" stroke="black" d="M336.43,-128.5C343.8,-128.5 352.35,-128.5 361.62,-128.5"/>
<polygon fill="black" stroke="black" points="361.36,-132 371.36,-128.5 361.36,-125 361.36,-132"/>
</g>
<!-- 140100644439664 -->
<g id="node9" class="node">
<title>140100644439664</title>
<polygon fill="none" stroke="black" points="1230,-109.5 1230,-145.5 1459.5,-145.5 1459.5,-109.5 1230,-109.5"/>
<text text-anchor="middle" x="1242.5" y="-123.2" font-family="Times,serif" font-size="14.00">n</text>
<polyline fill="none" stroke="black" points="1255,-110.25 1255,-145.5"/>
<text text-anchor="middle" x="1305.75" y="-123.2" font-family="Times,serif" font-size="14.00">data 0.8814</text>
<polyline fill="none" stroke="black" points="1356.5,-110.25 1356.5,-145.5"/>
<text text-anchor="middle" x="1408" y="-123.2" font-family="Times,serif" font-size="14.00">grad 0.5000</text>
</g>
<!-- 140100644439664&#45;&gt;140100644442256* -->
<g id="edge21" class="edge">
<title>140100644439664&#45;&gt;140100644442256*</title>
<path fill="none" stroke="black" d="M1459.04,-144.9C1468.34,-146.33 1477.23,-147.7 1485.23,-148.93"/>
<polygon fill="black" stroke="black" points="1484.48,-152.51 1494.9,-150.57 1485.55,-145.59 1484.48,-152.51"/>
</g>
<!-- 140100644439664+ -->
<g id="node10" class="node">
<title>140100644439664+</title>
<ellipse fill="none" stroke="black" cx="1167" cy="-127.5" rx="27" ry="18"/>
<text text-anchor="middle" x="1167" y="-122.83" font-family="Times,serif" font-size="14.00">+</text>
</g>
<!-- 140100644439664+&#45;&gt;140100644439664 -->
<g id="edge4" class="edge">
<title>140100644439664+&#45;&gt;140100644439664</title>
<path fill="none" stroke="black" d="M1194.31,-127.5C1201.61,-127.5 1210.04,-127.5 1219.11,-127.5"/>
<polygon fill="black" stroke="black" points="1219.02,-131 1229.02,-127.5 1219.02,-124 1219.02,-131"/>
</g>
<!-- 140100782144096 -->
<g id="node11" class="node">
<title>140100782144096</title>
<polygon fill="none" stroke="black" points="0,-165.5 0,-201.5 246,-201.5 246,-165.5 0,-165.5"/>
<text text-anchor="middle" x="18.5" y="-179.2" font-family="Times,serif" font-size="14.00">w1</text>
<polyline fill="none" stroke="black" points="37,-166.25 37,-201.5"/>
<text text-anchor="middle" x="90" y="-179.2" font-family="Times,serif" font-size="14.00">data &#45;3.0000</text>
<polyline fill="none" stroke="black" points="143,-166.25 143,-201.5"/>
<text text-anchor="middle" x="194.5" y="-179.2" font-family="Times,serif" font-size="14.00">grad 1.0000</text>
</g>
<!-- 140100782144096&#45;&gt;140100782145104* -->
<g id="edge19" class="edge">
<title>140100782144096&#45;&gt;140100782145104*</title>
<path fill="none" stroke="black" d="M214.85,-165.58C225.44,-162.85 236.02,-159.82 246,-156.5 256.4,-153.04 267.4,-148.41 277.21,-143.92"/>
<polygon fill="black" stroke="black" points="278.37,-146.77 285.92,-139.33 275.38,-140.44 278.37,-146.77"/>
</g>
<!-- 140100644442256 -->
<g id="node12" class="node">
<title>140100644442256</title>
<polygon fill="none" stroke="black" points="1585.5,-136.5 1585.5,-172.5 1810.5,-172.5 1810.5,-136.5 1585.5,-136.5"/>
<text text-anchor="middle" x="1595.75" y="-150.2" font-family="Times,serif" font-size="14.00"> </text>
<polyline fill="none" stroke="black" points="1606,-137.25 1606,-172.5"/>
<text text-anchor="middle" x="1656.75" y="-150.2" font-family="Times,serif" font-size="14.00">data 1.7627</text>
<polyline fill="none" stroke="black" points="1707.5,-137.25 1707.5,-172.5"/>
<text text-anchor="middle" x="1759" y="-150.2" font-family="Times,serif" font-size="14.00">grad 0.2500</text>
</g>
<!-- 140100644442496exp -->
<g id="node21" class="node">
<title>140100644442496exp</title>
<ellipse fill="none" stroke="black" cx="1875.61" cy="-154.5" rx="29.11" ry="18"/>
<text text-anchor="middle" x="1875.61" y="-149.82" font-family="Times,serif" font-size="14.00">exp</text>
</g>
<!-- 140100644442256&#45;&gt;140100644442496exp -->
<g id="edge14" class="edge">
<title>140100644442256&#45;&gt;140100644442496exp</title>
<path fill="none" stroke="black" d="M1810.22,-154.5C1819.09,-154.5 1827.62,-154.5 1835.4,-154.5"/>
<polygon fill="black" stroke="black" points="1835.23,-158 1845.23,-154.5 1835.23,-151 1835.23,-158"/>
</g>
<!-- 140100644442256*&#45;&gt;140100644442256 -->
<g id="edge5" class="edge">
<title>140100644442256*&#45;&gt;140100644442256</title>
<path fill="none" stroke="black" d="M1549.85,-154.5C1557.21,-154.5 1565.72,-154.5 1574.86,-154.5"/>
<polygon fill="black" stroke="black" points="1574.85,-158 1584.85,-154.5 1574.85,-151 1574.85,-158"/>
</g>
<!-- 140100644441824 -->
<g id="node14" class="node">
<title>140100644441824</title>
<polygon fill="none" stroke="black" points="374.25,-55.5 374.25,-91.5 639.75,-91.5 639.75,-55.5 374.25,-55.5"/>
<text text-anchor="middle" x="404.75" y="-69.2" font-family="Times,serif" font-size="14.00">x2*w2</text>
<polyline fill="none" stroke="black" points="435.25,-56.25 435.25,-91.5"/>
<text text-anchor="middle" x="486" y="-69.2" font-family="Times,serif" font-size="14.00">data 0.0000</text>
<polyline fill="none" stroke="black" points="536.75,-56.25 536.75,-91.5"/>
<text text-anchor="middle" x="588.25" y="-69.2" font-family="Times,serif" font-size="14.00">grad 0.5000</text>
</g>
<!-- 140100644441824&#45;&gt;140100644440960+ -->
<g id="edge23" class="edge">
<title>140100644441824&#45;&gt;140100644440960+</title>
<path fill="none" stroke="black" d="M638.46,-91.47C648.85,-92.9 658.69,-94.26 667.43,-95.46"/>
<polygon fill="black" stroke="black" points="666.87,-99.06 677.25,-96.95 667.82,-92.12 666.87,-99.06"/>
</g>
<!-- 140100644441824*&#45;&gt;140100644441824 -->
<g id="edge6" class="edge">
<title>140100644441824*&#45;&gt;140100644441824</title>
<path fill="none" stroke="black" d="M336.43,-73.5C344.34,-73.5 353.62,-73.5 363.69,-73.5"/>
<polygon fill="black" stroke="black" points="363.44,-77 373.44,-73.5 363.44,-70 363.44,-77"/>
</g>
<!-- 140100644443888 -->
<g id="node16" class="node">
<title>140100644443888</title>
<polygon fill="none" stroke="black" points="3173.72,-135.5 3173.72,-171.5 3402.47,-171.5 3402.47,-135.5 3173.72,-135.5"/>
<text text-anchor="middle" x="3185.85" y="-149.2" font-family="Times,serif" font-size="14.00">o</text>
<polyline fill="none" stroke="black" points="3197.97,-136.25 3197.97,-171.5"/>
<text text-anchor="middle" x="3248.72" y="-149.2" font-family="Times,serif" font-size="14.00">data 0.7071</text>
<polyline fill="none" stroke="black" points="3299.47,-136.25 3299.47,-171.5"/>
<text text-anchor="middle" x="3350.97" y="-149.2" font-family="Times,serif" font-size="14.00">grad 1.0000</text>
</g>
<!-- 140100644443888*&#45;&gt;140100644443888 -->
<g id="edge7" class="edge">
<title>140100644443888*&#45;&gt;140100644443888</title>
<path fill="none" stroke="black" d="M3137.98,-153.5C3145.41,-153.5 3154.02,-153.5 3163.28,-153.5"/>
<polygon fill="black" stroke="black" points="3162.99,-157 3172.99,-153.5 3162.99,-150 3162.99,-157"/>
</g>
<!-- 140100782141696 -->
<g id="node18" class="node">
<title>140100782141696</title>
<polygon fill="none" stroke="black" points="1.88,-110.5 1.88,-146.5 244.12,-146.5 244.12,-110.5 1.88,-110.5"/>
<text text-anchor="middle" x="18.5" y="-124.2" font-family="Times,serif" font-size="14.00">x1</text>
<polyline fill="none" stroke="black" points="35.12,-111.25 35.12,-146.5"/>
<text text-anchor="middle" x="85.88" y="-124.2" font-family="Times,serif" font-size="14.00">data 2.0000</text>
<polyline fill="none" stroke="black" points="136.62,-111.25 136.62,-146.5"/>
<text text-anchor="middle" x="190.38" y="-124.2" font-family="Times,serif" font-size="14.00">grad &#45;1.5000</text>
</g>
<!-- 140100782141696&#45;&gt;140100782145104* -->
<g id="edge18" class="edge">
<title>140100782141696&#45;&gt;140100782145104*</title>
<path fill="none" stroke="black" d="M243.9,-128.5C253.48,-128.5 262.62,-128.5 270.83,-128.5"/>
<polygon fill="black" stroke="black" points="270.78,-132 280.78,-128.5 270.78,-125 270.78,-132"/>
</g>
<!-- 140100782144384 -->
<g id="node19" class="node">
<title>140100782144384</title>
<polygon fill="none" stroke="black" points="2.25,-0.5 2.25,-36.5 243.75,-36.5 243.75,-0.5 2.25,-0.5"/>
<text text-anchor="middle" x="20.75" y="-14.2" font-family="Times,serif" font-size="14.00">w2</text>
<polyline fill="none" stroke="black" points="39.25,-1.25 39.25,-36.5"/>
<text text-anchor="middle" x="90" y="-14.2" font-family="Times,serif" font-size="14.00">data 1.0000</text>
<polyline fill="none" stroke="black" points="140.75,-1.25 140.75,-36.5"/>
<text text-anchor="middle" x="192.25" y="-14.2" font-family="Times,serif" font-size="14.00">grad 0.0000</text>
</g>
<!-- 140100782144384&#45;&gt;140100644441824* -->
<g id="edge11" class="edge">
<title>140100782144384&#45;&gt;140100644441824*</title>
<path fill="none" stroke="black" d="M214.85,-36.42C225.44,-39.15 236.02,-42.18 246,-45.5 256.4,-48.96 267.4,-53.59 277.21,-58.08"/>
<polygon fill="black" stroke="black" points="275.38,-61.56 285.92,-62.67 278.37,-55.23 275.38,-61.56"/>
</g>
<!-- 140100644442496 -->
<g id="node20" class="node">
<title>140100644442496</title>
<polygon fill="none" stroke="black" points="1942.97,-136.5 1942.97,-172.5 2167.97,-172.5 2167.97,-136.5 1942.97,-136.5"/>
<text text-anchor="middle" x="1953.22" y="-150.2" font-family="Times,serif" font-size="14.00"> </text>
<polyline fill="none" stroke="black" points="1963.47,-137.25 1963.47,-172.5"/>
<text text-anchor="middle" x="2014.22" y="-150.2" font-family="Times,serif" font-size="14.00">data 5.8284</text>
<polyline fill="none" stroke="black" points="2064.97,-137.25 2064.97,-172.5"/>
<text text-anchor="middle" x="2116.47" y="-150.2" font-family="Times,serif" font-size="14.00">grad 0.0429</text>
</g>
<!-- 140100644442496&#45;&gt;140100644442640+ -->
<g id="edge16" class="edge">
<title>140100644442496&#45;&gt;140100644442640+</title>
<path fill="none" stroke="black" d="M2167.78,-171.6C2177.82,-173.14 2187.42,-174.62 2196,-175.94"/>
<polygon fill="black" stroke="black" points="2195.23,-179.51 2205.65,-177.57 2196.3,-172.59 2195.23,-179.51"/>
</g>
<!-- 140100644443072+ -->
<g id="node24" class="node">
<title>140100644443072+</title>
<ellipse fill="none" stroke="black" cx="2233.22" cy="-126.5" rx="27" ry="18"/>
<text text-anchor="middle" x="2233.22" y="-121.83" font-family="Times,serif" font-size="14.00">+</text>
</g>
<!-- 140100644442496&#45;&gt;140100644443072+ -->
<g id="edge28" class="edge">
<title>140100644442496&#45;&gt;140100644443072+</title>
<path fill="none" stroke="black" d="M2167.78,-136.77C2177.82,-135.17 2187.42,-133.64 2196,-132.27"/>
<polygon fill="black" stroke="black" points="2196.32,-135.6 2205.65,-130.57 2195.22,-128.69 2196.32,-135.6"/>
</g>
<!-- 140100644442496exp&#45;&gt;140100644442496 -->
<g id="edge8" class="edge">
<title>140100644442496exp&#45;&gt;140100644442496</title>
<path fill="none" stroke="black" d="M1905.19,-154.5C1913.19,-154.5 1922.43,-154.5 1932.31,-154.5"/>
<polygon fill="black" stroke="black" points="1932.25,-158 1942.25,-154.5 1932.25,-151 1932.25,-158"/>
</g>
<!-- 140100644442064 -->
<g id="node22" class="node">
<title>140100644442064</title>
<polygon fill="none" stroke="black" points="1940.72,-191.5 1940.72,-227.5 2170.22,-227.5 2170.22,-191.5 1940.72,-191.5"/>
<text text-anchor="middle" x="1950.97" y="-205.2" font-family="Times,serif" font-size="14.00"> </text>
<polyline fill="none" stroke="black" points="1961.22,-192.25 1961.22,-227.5"/>
<text text-anchor="middle" x="2014.22" y="-205.2" font-family="Times,serif" font-size="14.00">data &#45;1.0000</text>
<polyline fill="none" stroke="black" points="2067.22,-192.25 2067.22,-227.5"/>
<text text-anchor="middle" x="2118.72" y="-205.2" font-family="Times,serif" font-size="14.00">grad 0.1464</text>
</g>
<!-- 140100644442064&#45;&gt;140100644442640+ -->
<g id="edge20" class="edge">
<title>140100644442064&#45;&gt;140100644442640+</title>
<path fill="none" stroke="black" d="M2169.27,-191.53C2178.72,-190.02 2187.75,-188.59 2195.87,-187.29"/>
<polygon fill="black" stroke="black" points="2196.38,-190.6 2205.7,-185.57 2195.28,-183.68 2196.38,-190.6"/>
</g>
<!-- 140100644443072 -->
<g id="node23" class="node">
<title>140100644443072</title>
<polygon fill="none" stroke="black" points="2296.22,-108.5 2296.22,-144.5 2525.72,-144.5 2525.72,-108.5 2296.22,-108.5"/>
<text text-anchor="middle" x="2306.47" y="-122.2" font-family="Times,serif" font-size="14.00"> </text>
<polyline fill="none" stroke="black" points="2316.72,-109.25 2316.72,-144.5"/>
<text text-anchor="middle" x="2367.47" y="-122.2" font-family="Times,serif" font-size="14.00">data 6.8284</text>
<polyline fill="none" stroke="black" points="2418.22,-109.25 2418.22,-144.5"/>
<text text-anchor="middle" x="2471.97" y="-122.2" font-family="Times,serif" font-size="14.00">grad &#45;0.1036</text>
</g>
<!-- 140100644443072&#45;&gt;140100644444128**&#45;1 -->
<g id="edge15" class="edge">
<title>140100644443072&#45;&gt;140100644444128**&#45;1</title>
<path fill="none" stroke="black" d="M2525.42,-126.5C2563.71,-126.5 2604.01,-126.5 2632.84,-126.5"/>
<polygon fill="black" stroke="black" points="2632.68,-130 2642.68,-126.5 2632.68,-123 2632.68,-130"/>
</g>
<!-- 140100644443072+&#45;&gt;140100644443072 -->
<g id="edge9" class="edge">
<title>140100644443072+&#45;&gt;140100644443072</title>
<path fill="none" stroke="black" d="M2260.53,-126.5C2267.83,-126.5 2276.26,-126.5 2285.33,-126.5"/>
<polygon fill="black" stroke="black" points="2285.25,-130 2295.25,-126.5 2285.25,-123 2285.25,-130"/>
</g>
<!-- 140100782142416 -->
<g id="node25" class="node">
<title>140100782142416</title>
<polygon fill="none" stroke="black" points="821.25,-137.5 821.25,-173.5 1050.75,-173.5 1050.75,-137.5 821.25,-137.5"/>
<text text-anchor="middle" x="833.75" y="-151.2" font-family="Times,serif" font-size="14.00">b</text>
<polyline fill="none" stroke="black" points="846.25,-138.25 846.25,-173.5"/>
<text text-anchor="middle" x="897" y="-151.2" font-family="Times,serif" font-size="14.00">data 6.8814</text>
<polyline fill="none" stroke="black" points="947.75,-138.25 947.75,-173.5"/>
<text text-anchor="middle" x="999.25" y="-151.2" font-family="Times,serif" font-size="14.00">grad 0.5000</text>
</g>
<!-- 140100782142416&#45;&gt;140100644439664+ -->
<g id="edge12" class="edge">
<title>140100782142416&#45;&gt;140100644439664+</title>
<path fill="none" stroke="black" d="M1050.49,-141.62C1079.23,-138.11 1108.04,-134.59 1129.71,-131.94"/>
<polygon fill="black" stroke="black" points="1129.84,-135.32 1139.34,-130.64 1128.99,-128.38 1129.84,-135.32"/>
</g>
<!-- 140100644440960 -->
<g id="node26" class="node">
<title>140100644440960</title>
<polygon fill="none" stroke="black" points="768,-82.5 768,-118.5 1104,-118.5 1104,-82.5 768,-82.5"/>
<text text-anchor="middle" x="831.5" y="-96.2" font-family="Times,serif" font-size="14.00">x1*w1 + x2*w2</text>
<polyline fill="none" stroke="black" points="895,-83.25 895,-118.5"/>
<text text-anchor="middle" x="948" y="-96.2" font-family="Times,serif" font-size="14.00">data &#45;6.0000</text>
<polyline fill="none" stroke="black" points="1001,-83.25 1001,-118.5"/>
<text text-anchor="middle" x="1052.5" y="-96.2" font-family="Times,serif" font-size="14.00">grad 0.5000</text>
</g>
<!-- 140100644440960&#45;&gt;140100644439664+ -->
<g id="edge27" class="edge">
<title>140100644440960&#45;&gt;140100644439664+</title>
<path fill="none" stroke="black" d="M1089.43,-118.47C1104,-120.19 1117.65,-121.8 1129.27,-123.17"/>
<polygon fill="black" stroke="black" points="1128.83,-126.76 1139.17,-124.46 1129.65,-119.81 1128.83,-126.76"/>
</g>
<!-- 140100644440960+&#45;&gt;140100644440960 -->
<g id="edge10" class="edge">
<title>140100644440960+&#45;&gt;140100644440960</title>
<path fill="none" stroke="black" d="M732.27,-100.5C739.52,-100.5 747.98,-100.5 757.24,-100.5"/>
<polygon fill="black" stroke="black" points="757.01,-104 767.01,-100.5 757.01,-97 757.01,-104"/>
</g>
<!-- 140100644443120 -->
<g id="node28" class="node">
<title>140100644443120</title>
<polygon fill="none" stroke="black" points="1940.72,-81.5 1940.72,-117.5 2170.22,-117.5 2170.22,-81.5 1940.72,-81.5"/>
<text text-anchor="middle" x="1950.97" y="-95.2" font-family="Times,serif" font-size="14.00"> </text>
<polyline fill="none" stroke="black" points="1961.22,-82.25 1961.22,-117.5"/>
<text text-anchor="middle" x="2011.97" y="-95.2" font-family="Times,serif" font-size="14.00">data 1.0000</text>
<polyline fill="none" stroke="black" points="2062.72,-82.25 2062.72,-117.5"/>
<text text-anchor="middle" x="2116.47" y="-95.2" font-family="Times,serif" font-size="14.00">grad &#45;0.1036</text>
</g>
<!-- 140100644443120&#45;&gt;140100644443072+ -->
<g id="edge24" class="edge">
<title>140100644443120&#45;&gt;140100644443072+</title>
<path fill="none" stroke="black" d="M2169.77,-116.9C2179.06,-118.33 2187.95,-119.7 2195.95,-120.93"/>
<polygon fill="black" stroke="black" points="2195.21,-124.51 2205.62,-122.57 2196.27,-117.59 2195.21,-124.51"/>
</g>
</g>
</svg>
