<?xml version="1.0" encoding="UTF-8" standalone="no"?>
<!DOCTYPE svg PUBLIC "-//W3C//DTD SVG 1.1//EN"
 "http://www.w3.org/Graphics/SVG/1.1/DTD/svg11.dtd">
<!-- Generated by graphviz version 8.1.0 (20230707.0739)
 -->
<!-- Pages: 1 -->
<svg width="1150pt" height="128pt"
 viewBox="0.00 0.00 1149.50 128.00" xmlns="http://www.w3.org/2000/svg" xmlns:xlink="http://www.w3.org/1999/xlink">
<g id="graph0" class="graph" transform="scale(1 1) rotate(0) translate(4 124)">
<polygon fill="white" stroke="none" points="-4,4 -4,-124 1145.5,-124 1145.5,4 -4,4"/>
<!-- 2337264772112 -->
<g id="node1" class="node">
<title>2337264772112</title>
<polygon fill="none" stroke="black" points="631.5,-27.5 631.5,-63.5 822,-63.5 822,-27.5 631.5,-27.5"/>
<text text-anchor="middle" x="643.25" y="-40.2" font-family="Times New Roman,serif" font-size="14.00">d</text>
<polyline fill="none" stroke="black" points="655,-27.75 655,-63.5"/>
<text text-anchor="middle" x="697.5" y="-40.2" font-family="Times New Roman,serif" font-size="14.00">data &#45;8.0500</text>
<polyline fill="none" stroke="black" points="740,-27.75 740,-63.5"/>
<text text-anchor="middle" x="781" y="-40.2" font-family="Times New Roman,serif" font-size="14.00">grad 0.0000</text>
</g>
<!-- 2337264770960* -->
<g id="node9" class="node">
<title>2337264770960*</title>
<ellipse fill="none" stroke="black" cx="885" cy="-72.5" rx="27" ry="18"/>
<text text-anchor="middle" x="885" y="-67.08" font-family="Times New Roman,serif" font-size="14.00">*</text>
</g>
<!-- 2337264772112&#45;&gt;2337264770960* -->
<g id="edge8" class="edge">
<title>2337264772112&#45;&gt;2337264770960*</title>
<path fill="none" stroke="black" d="M821.8,-61.75C830.93,-63.33 839.77,-64.86 847.77,-66.24"/>
<polygon fill="black" stroke="black" points="847.02,-69.83 857.47,-68.09 848.21,-62.94 847.02,-69.83"/>
</g>
<!-- 2337264772112+ -->
<g id="node2" class="node">
<title>2337264772112+</title>
<ellipse fill="none" stroke="black" cx="568.5" cy="-45.5" rx="27" ry="18"/>
<text text-anchor="middle" x="568.5" y="-40.08" font-family="Times New Roman,serif" font-size="14.00">+</text>
</g>
<!-- 2337264772112+&#45;&gt;2337264772112 -->
<g id="edge1" class="edge">
<title>2337264772112+&#45;&gt;2337264772112</title>
<path fill="none" stroke="black" d="M595.65,-45.5C603.08,-45.5 611.66,-45.5 620.8,-45.5"/>
<polygon fill="black" stroke="black" points="620.74,-49 630.74,-45.5 620.74,-42 620.74,-49"/>
</g>
<!-- 2337264768528 -->
<g id="node3" class="node">
<title>2337264768528</title>
<polygon fill="none" stroke="black" points="316.5,-55.5 316.5,-91.5 505.5,-91.5 505.5,-55.5 316.5,-55.5"/>
<text text-anchor="middle" x="327.5" y="-68.2" font-family="Times New Roman,serif" font-size="14.00">e</text>
<polyline fill="none" stroke="black" points="338.5,-55.75 338.5,-91.5"/>
<text text-anchor="middle" x="381" y="-68.2" font-family="Times New Roman,serif" font-size="14.00">data &#45;8.2500</text>
<polyline fill="none" stroke="black" points="423.5,-55.75 423.5,-91.5"/>
<text text-anchor="middle" x="464.5" y="-68.2" font-family="Times New Roman,serif" font-size="14.00">grad 0.0000</text>
</g>
<!-- 2337264768528&#45;&gt;2337264772112+ -->
<g id="edge4" class="edge">
<title>2337264768528&#45;&gt;2337264772112+</title>
<path fill="none" stroke="black" d="M505.15,-56.73C514.29,-55.08 523.14,-53.49 531.16,-52.04"/>
<polygon fill="black" stroke="black" points="531.67,-55.33 540.89,-50.11 530.43,-48.44 531.67,-55.33"/>
</g>
<!-- 2337264768528* -->
<g id="node4" class="node">
<title>2337264768528*</title>
<ellipse fill="none" stroke="black" cx="253.5" cy="-73.5" rx="27" ry="18"/>
<text text-anchor="middle" x="253.5" y="-68.08" font-family="Times New Roman,serif" font-size="14.00">*</text>
</g>
<!-- 2337264768528*&#45;&gt;2337264768528 -->
<g id="edge2" class="edge">
<title>2337264768528*&#45;&gt;2337264768528</title>
<path fill="none" stroke="black" d="M280.88,-73.5C288.29,-73.5 296.83,-73.5 305.91,-73.5"/>
<polygon fill="black" stroke="black" points="305.79,-77 315.79,-73.5 305.79,-70 305.79,-77"/>
</g>
<!-- 2337264764496 -->
<g id="node5" class="node">
<title>2337264764496</title>
<polygon fill="none" stroke="black" points="633,-82.5 633,-118.5 820.5,-118.5 820.5,-82.5 633,-82.5"/>
<text text-anchor="middle" x="643.25" y="-95.2" font-family="Times New Roman,serif" font-size="14.00">f</text>
<polyline fill="none" stroke="black" points="653.5,-82.75 653.5,-118.5"/>
<text text-anchor="middle" x="696" y="-95.2" font-family="Times New Roman,serif" font-size="14.00">data &#45;2.2000</text>
<polyline fill="none" stroke="black" points="738.5,-82.75 738.5,-118.5"/>
<text text-anchor="middle" x="779.5" y="-95.2" font-family="Times New Roman,serif" font-size="14.00">grad 0.0000</text>
</g>
<!-- 2337264764496&#45;&gt;2337264770960* -->
<g id="edge9" class="edge">
<title>2337264764496&#45;&gt;2337264770960*</title>
<path fill="none" stroke="black" d="M820.45,-83.89C830.02,-82.17 839.3,-80.51 847.67,-79.01"/>
<polygon fill="black" stroke="black" points="848.23,-82.29 857.46,-77.08 847,-75.4 848.23,-82.29"/>
</g>
<!-- 2337264812304 -->
<g id="node6" class="node">
<title>2337264812304</title>
<polygon fill="none" stroke="black" points="318.38,-0.5 318.38,-36.5 503.62,-36.5 503.62,-0.5 318.38,-0.5"/>
<text text-anchor="middle" x="329.75" y="-13.2" font-family="Times New Roman,serif" font-size="14.00">c</text>
<polyline fill="none" stroke="black" points="341.12,-0.75 341.12,-36.5"/>
<text text-anchor="middle" x="381.38" y="-13.2" font-family="Times New Roman,serif" font-size="14.00">data 0.2000</text>
<polyline fill="none" stroke="black" points="421.62,-0.75 421.62,-36.5"/>
<text text-anchor="middle" x="462.62" y="-13.2" font-family="Times New Roman,serif" font-size="14.00">grad 0.0000</text>
</g>
<!-- 2337264812304&#45;&gt;2337264772112+ -->
<g id="edge6" class="edge">
<title>2337264812304&#45;&gt;2337264772112+</title>
<path fill="none" stroke="black" d="M503.35,-34.36C513.19,-36.07 522.73,-37.73 531.31,-39.22"/>
<polygon fill="black" stroke="black" points="530.53,-42.81 540.98,-41.07 531.73,-35.91 530.53,-42.81"/>
</g>
<!-- 2337264812880 -->
<g id="node7" class="node">
<title>2337264812880</title>
<polygon fill="none" stroke="black" points="3,-83.5 3,-119.5 187.5,-119.5 187.5,-83.5 3,-83.5"/>
<text text-anchor="middle" x="14" y="-96.2" font-family="Times New Roman,serif" font-size="14.00">a</text>
<polyline fill="none" stroke="black" points="25,-83.75 25,-119.5"/>
<text text-anchor="middle" x="65.25" y="-96.2" font-family="Times New Roman,serif" font-size="14.00">data 1.5000</text>
<polyline fill="none" stroke="black" points="105.5,-83.75 105.5,-119.5"/>
<text text-anchor="middle" x="146.5" y="-96.2" font-family="Times New Roman,serif" font-size="14.00">grad 0.0000</text>
</g>
<!-- 2337264812880&#45;&gt;2337264768528* -->
<g id="edge5" class="edge">
<title>2337264812880&#45;&gt;2337264768528*</title>
<path fill="none" stroke="black" d="M187.14,-85.21C197.43,-83.37 207.42,-81.58 216.36,-79.98"/>
<polygon fill="black" stroke="black" points="216.85,-83.27 226.08,-78.06 215.61,-76.37 216.85,-83.27"/>
</g>
<!-- 2337264770960 -->
<g id="node8" class="node">
<title>2337264770960</title>
<polygon fill="none" stroke="black" points="948,-54.5 948,-90.5 1141.5,-90.5 1141.5,-54.5 948,-54.5"/>
<text text-anchor="middle" x="960.12" y="-67.2" font-family="Times New Roman,serif" font-size="14.00">L</text>
<polyline fill="none" stroke="black" points="972.25,-54.75 972.25,-90.5"/>
<text text-anchor="middle" x="1015.88" y="-67.2" font-family="Times New Roman,serif" font-size="14.00">data 17.7100</text>
<polyline fill="none" stroke="black" points="1059.5,-54.75 1059.5,-90.5"/>
<text text-anchor="middle" x="1100.5" y="-67.2" font-family="Times New Roman,serif" font-size="14.00">grad 1.0000</text>
</g>
<!-- 2337264770960*&#45;&gt;2337264770960 -->
<g id="edge3" class="edge">
<title>2337264770960*&#45;&gt;2337264770960</title>
<path fill="none" stroke="black" d="M912.4,-72.5C919.78,-72.5 928.28,-72.5 937.33,-72.5"/>
<polygon fill="black" stroke="black" points="937.17,-76 947.17,-72.5 937.17,-69 937.17,-76"/>
</g>
<!-- 2337264718800 -->
<g id="node10" class="node">
<title>2337264718800</title>
<polygon fill="none" stroke="black" points="0,-28.5 0,-64.5 190.5,-64.5 190.5,-28.5 0,-28.5"/>
<text text-anchor="middle" x="11.75" y="-41.2" font-family="Times New Roman,serif" font-size="14.00">b</text>
<polyline fill="none" stroke="black" points="23.5,-28.75 23.5,-64.5"/>
<text text-anchor="middle" x="66" y="-41.2" font-family="Times New Roman,serif" font-size="14.00">data &#45;5.5000</text>
<polyline fill="none" stroke="black" points="108.5,-28.75 108.5,-64.5"/>
<text text-anchor="middle" x="149.5" y="-41.2" font-family="Times New Roman,serif" font-size="14.00">grad 0.0000</text>
</g>
<!-- 2337264718800&#45;&gt;2337264768528* -->
<g id="edge7" class="edge">
<title>2337264718800&#45;&gt;2337264768528*</title>
<path fill="none" stroke="black" d="M190.3,-62.75C199.43,-64.33 208.27,-65.86 216.27,-67.24"/>
<polygon fill="black" stroke="black" points="215.52,-70.83 225.97,-69.09 216.71,-63.94 215.52,-70.83"/>
</g>
</g>
</svg>
