<?xml version="1.0" encoding="UTF-8" standalone="no"?>
<!DOCTYPE svg PUBLIC "-//W3C//DTD SVG 1.1//EN"
 "http://www.w3.org/Graphics/SVG/1.1/DTD/svg11.dtd">
<!-- Generated by graphviz version 8.1.0 (20230707.2238)
 -->
<!-- Pages: 1 -->
<svg width="1836pt" height="210pt"
 viewBox="0.00 0.00 1835.94 210.00" xmlns="http://www.w3.org/2000/svg" xmlns:xlink="http://www.w3.org/1999/xlink">
<g id="graph0" class="graph" transform="scale(1 1) rotate(0) translate(4 206)">
<polygon fill="white" stroke="none" points="-4,4 -4,-206 1831.94,-206 1831.94,4 -4,4"/>
<!-- 140100780848128 -->
<g id="node1" class="node">
<title>140100780848128</title>
<polygon fill="none" stroke="black" points="372,-55.5 372,-91.5 642,-91.5 642,-55.5 372,-55.5"/>
<text text-anchor="middle" x="402.5" y="-69.2" font-family="Times,serif" font-size="14.00">x1*w1</text>
<polyline fill="none" stroke="black" points="433,-56.25 433,-91.5"/>
<text text-anchor="middle" x="486" y="-69.2" font-family="Times,serif" font-size="14.00">data &#45;6.0000</text>
<polyline fill="none" stroke="black" points="539,-56.25 539,-91.5"/>
<text text-anchor="middle" x="590.5" y="-69.2" font-family="Times,serif" font-size="14.00">grad 0.5000</text>
</g>
<!-- 140102975573104+ -->
<g id="node6" class="node">
<title>140102975573104+</title>
<ellipse fill="none" stroke="black" cx="705" cy="-100.5" rx="27" ry="18"/>
<text text-anchor="middle" x="705" y="-95.83" font-family="Times,serif" font-size="14.00">+</text>
</g>
<!-- 140100780848128&#45;&gt;140102975573104+ -->
<g id="edge14" class="edge">
<title>140100780848128&#45;&gt;140102975573104+</title>
<path fill="none" stroke="black" d="M638.46,-91.47C648.85,-92.9 658.69,-94.26 667.43,-95.46"/>
<polygon fill="black" stroke="black" points="666.87,-99.06 677.25,-96.95 667.82,-92.12 666.87,-99.06"/>
</g>
<!-- 140100780848128* -->
<g id="node2" class="node">
<title>140100780848128*</title>
<ellipse fill="none" stroke="black" cx="309" cy="-73.5" rx="27" ry="18"/>
<text text-anchor="middle" x="309" y="-68.83" font-family="Times,serif" font-size="14.00">*</text>
</g>
<!-- 140100780848128*&#45;&gt;140100780848128 -->
<g id="edge1" class="edge">
<title>140100780848128*&#45;&gt;140100780848128</title>
<path fill="none" stroke="black" d="M336.43,-73.5C343.8,-73.5 352.35,-73.5 361.62,-73.5"/>
<polygon fill="black" stroke="black" points="361.36,-77 371.36,-73.5 361.36,-70 361.36,-77"/>
</g>
<!-- 140100780849184 -->
<g id="node3" class="node">
<title>140100780849184</title>
<polygon fill="none" stroke="black" points="0,-55.5 0,-91.5 246,-91.5 246,-55.5 0,-55.5"/>
<text text-anchor="middle" x="18.5" y="-69.2" font-family="Times,serif" font-size="14.00">w1</text>
<polyline fill="none" stroke="black" points="37,-56.25 37,-91.5"/>
<text text-anchor="middle" x="90" y="-69.2" font-family="Times,serif" font-size="14.00">data &#45;3.0000</text>
<polyline fill="none" stroke="black" points="143,-56.25 143,-91.5"/>
<text text-anchor="middle" x="194.5" y="-69.2" font-family="Times,serif" font-size="14.00">grad 1.0000</text>
</g>
<!-- 140100780849184&#45;&gt;140100780848128* -->
<g id="edge7" class="edge">
<title>140100780849184&#45;&gt;140100780848128*</title>
<path fill="none" stroke="black" d="M245.96,-73.5C254.72,-73.5 263.07,-73.5 270.65,-73.5"/>
<polygon fill="black" stroke="black" points="270.5,-77 280.5,-73.5 270.5,-70 270.5,-77"/>
</g>
<!-- 140100780850240 -->
<g id="node4" class="node">
<title>140100780850240</title>
<polygon fill="none" stroke="black" points="1.88,-0.5 1.88,-36.5 244.12,-36.5 244.12,-0.5 1.88,-0.5"/>
<text text-anchor="middle" x="18.5" y="-14.2" font-family="Times,serif" font-size="14.00">x1</text>
<polyline fill="none" stroke="black" points="35.12,-1.25 35.12,-36.5"/>
<text text-anchor="middle" x="85.88" y="-14.2" font-family="Times,serif" font-size="14.00">data 2.0000</text>
<polyline fill="none" stroke="black" points="136.62,-1.25 136.62,-36.5"/>
<text text-anchor="middle" x="190.38" y="-14.2" font-family="Times,serif" font-size="14.00">grad &#45;1.5000</text>
</g>
<!-- 140100780850240&#45;&gt;140100780848128* -->
<g id="edge8" class="edge">
<title>140100780850240&#45;&gt;140100780848128*</title>
<path fill="none" stroke="black" d="M211.19,-36.43C222.98,-39.46 234.85,-42.83 246,-46.5 256.15,-49.84 266.93,-54.23 276.6,-58.48"/>
<polygon fill="black" stroke="black" points="275.02,-62.06 285.58,-63 277.91,-55.69 275.02,-62.06"/>
</g>
<!-- 140102975573104 -->
<g id="node5" class="node">
<title>140102975573104</title>
<polygon fill="none" stroke="black" points="768,-82.5 768,-118.5 1104,-118.5 1104,-82.5 768,-82.5"/>
<text text-anchor="middle" x="831.5" y="-96.2" font-family="Times,serif" font-size="14.00">x1*w1 + x2*w2</text>
<polyline fill="none" stroke="black" points="895,-83.25 895,-118.5"/>
<text text-anchor="middle" x="948" y="-96.2" font-family="Times,serif" font-size="14.00">data &#45;6.0000</text>
<polyline fill="none" stroke="black" points="1001,-83.25 1001,-118.5"/>
<text text-anchor="middle" x="1052.5" y="-96.2" font-family="Times,serif" font-size="14.00">grad 0.5000</text>
</g>
<!-- 140102975583616+ -->
<g id="node12" class="node">
<title>140102975583616+</title>
<ellipse fill="none" stroke="black" cx="1167" cy="-127.5" rx="27" ry="18"/>
<text text-anchor="middle" x="1167" y="-122.83" font-family="Times,serif" font-size="14.00">+</text>
</g>
<!-- 140102975573104&#45;&gt;140102975583616+ -->
<g id="edge12" class="edge">
<title>140102975573104&#45;&gt;140102975583616+</title>
<path fill="none" stroke="black" d="M1089.43,-118.47C1104,-120.19 1117.65,-121.8 1129.27,-123.17"/>
<polygon fill="black" stroke="black" points="1128.83,-126.76 1139.17,-124.46 1129.65,-119.81 1128.83,-126.76"/>
</g>
<!-- 140102975573104+&#45;&gt;140102975573104 -->
<g id="edge2" class="edge">
<title>140102975573104+&#45;&gt;140102975573104</title>
<path fill="none" stroke="black" d="M732.27,-100.5C739.52,-100.5 747.98,-100.5 757.24,-100.5"/>
<polygon fill="black" stroke="black" points="757.01,-104 767.01,-100.5 757.01,-97 757.01,-104"/>
</g>
<!-- 140102975582848 -->
<g id="node7" class="node">
<title>140102975582848</title>
<polygon fill="none" stroke="black" points="1599.19,-109.5 1599.19,-145.5 1827.94,-145.5 1827.94,-109.5 1599.19,-109.5"/>
<text text-anchor="middle" x="1611.32" y="-123.2" font-family="Times,serif" font-size="14.00">o</text>
<polyline fill="none" stroke="black" points="1623.44,-110.25 1623.44,-145.5"/>
<text text-anchor="middle" x="1674.19" y="-123.2" font-family="Times,serif" font-size="14.00">data 0.7071</text>
<polyline fill="none" stroke="black" points="1724.94,-110.25 1724.94,-145.5"/>
<text text-anchor="middle" x="1776.44" y="-123.2" font-family="Times,serif" font-size="14.00">grad 1.0000</text>
</g>
<!-- 140102975582848tanh -->
<g id="node8" class="node">
<title>140102975582848tanh</title>
<ellipse fill="none" stroke="black" cx="1529.35" cy="-127.5" rx="33.85" ry="18"/>
<text text-anchor="middle" x="1529.35" y="-122.83" font-family="Times,serif" font-size="14.00">tanh</text>
</g>
<!-- 140102975582848tanh&#45;&gt;140102975582848 -->
<g id="edge3" class="edge">
<title>140102975582848tanh&#45;&gt;140102975582848</title>
<path fill="none" stroke="black" d="M1563.35,-127.5C1570.94,-127.5 1579.45,-127.5 1588.47,-127.5"/>
<polygon fill="black" stroke="black" points="1588.26,-131 1598.26,-127.5 1588.26,-124 1588.26,-131"/>
</g>
<!-- 140100780849328 -->
<g id="node9" class="node">
<title>140100780849328</title>
<polygon fill="none" stroke="black" points="2.25,-165.5 2.25,-201.5 243.75,-201.5 243.75,-165.5 2.25,-165.5"/>
<text text-anchor="middle" x="20.75" y="-179.2" font-family="Times,serif" font-size="14.00">w2</text>
<polyline fill="none" stroke="black" points="39.25,-166.25 39.25,-201.5"/>
<text text-anchor="middle" x="90" y="-179.2" font-family="Times,serif" font-size="14.00">data 1.0000</text>
<polyline fill="none" stroke="black" points="140.75,-166.25 140.75,-201.5"/>
<text text-anchor="middle" x="192.25" y="-179.2" font-family="Times,serif" font-size="14.00">grad 0.0000</text>
</g>
<!-- 140102975582176* -->
<g id="node15" class="node">
<title>140102975582176*</title>
<ellipse fill="none" stroke="black" cx="309" cy="-128.5" rx="27" ry="18"/>
<text text-anchor="middle" x="309" y="-123.83" font-family="Times,serif" font-size="14.00">*</text>
</g>
<!-- 140100780849328&#45;&gt;140102975582176* -->
<g id="edge6" class="edge">
<title>140100780849328&#45;&gt;140102975582176*</title>
<path fill="none" stroke="black" d="M214.85,-165.58C225.44,-162.85 236.02,-159.82 246,-156.5 256.4,-153.04 267.4,-148.41 277.21,-143.92"/>
<polygon fill="black" stroke="black" points="278.37,-146.77 285.92,-139.33 275.38,-140.44 278.37,-146.77"/>
</g>
<!-- 140100780849376 -->
<g id="node10" class="node">
<title>140100780849376</title>
<polygon fill="none" stroke="black" points="821.25,-137.5 821.25,-173.5 1050.75,-173.5 1050.75,-137.5 821.25,-137.5"/>
<text text-anchor="middle" x="833.75" y="-151.2" font-family="Times,serif" font-size="14.00">b</text>
<polyline fill="none" stroke="black" points="846.25,-138.25 846.25,-173.5"/>
<text text-anchor="middle" x="897" y="-151.2" font-family="Times,serif" font-size="14.00">data 6.8814</text>
<polyline fill="none" stroke="black" points="947.75,-138.25 947.75,-173.5"/>
<text text-anchor="middle" x="999.25" y="-151.2" font-family="Times,serif" font-size="14.00">grad 0.5000</text>
</g>
<!-- 140100780849376&#45;&gt;140102975583616+ -->
<g id="edge9" class="edge">
<title>140100780849376&#45;&gt;140102975583616+</title>
<path fill="none" stroke="black" d="M1050.49,-141.62C1079.23,-138.11 1108.04,-134.59 1129.71,-131.94"/>
<polygon fill="black" stroke="black" points="1129.84,-135.32 1139.34,-130.64 1128.99,-128.38 1129.84,-135.32"/>
</g>
<!-- 140102975583616 -->
<g id="node11" class="node">
<title>140102975583616</title>
<polygon fill="none" stroke="black" points="1230,-109.5 1230,-145.5 1459.5,-145.5 1459.5,-109.5 1230,-109.5"/>
<text text-anchor="middle" x="1242.5" y="-123.2" font-family="Times,serif" font-size="14.00">n</text>
<polyline fill="none" stroke="black" points="1255,-110.25 1255,-145.5"/>
<text text-anchor="middle" x="1305.75" y="-123.2" font-family="Times,serif" font-size="14.00">data 0.8814</text>
<polyline fill="none" stroke="black" points="1356.5,-110.25 1356.5,-145.5"/>
<text text-anchor="middle" x="1408" y="-123.2" font-family="Times,serif" font-size="14.00">grad 0.5000</text>
</g>
<!-- 140102975583616&#45;&gt;140102975582848tanh -->
<g id="edge11" class="edge">
<title>140102975583616&#45;&gt;140102975582848tanh</title>
<path fill="none" stroke="black" d="M1459.31,-127.5C1467.99,-127.5 1476.38,-127.5 1484.14,-127.5"/>
<polygon fill="black" stroke="black" points="1484.02,-131 1494.02,-127.5 1484.02,-124 1484.02,-131"/>
</g>
<!-- 140102975583616+&#45;&gt;140102975583616 -->
<g id="edge4" class="edge">
<title>140102975583616+&#45;&gt;140102975583616</title>
<path fill="none" stroke="black" d="M1194.31,-127.5C1201.61,-127.5 1210.04,-127.5 1219.11,-127.5"/>
<polygon fill="black" stroke="black" points="1219.02,-131 1229.02,-127.5 1219.02,-124 1219.02,-131"/>
</g>
<!-- 140100782709712 -->
<g id="node13" class="node">
<title>140100782709712</title>
<polygon fill="none" stroke="black" points="4.12,-110.5 4.12,-146.5 241.88,-146.5 241.88,-110.5 4.12,-110.5"/>
<text text-anchor="middle" x="20.75" y="-124.2" font-family="Times,serif" font-size="14.00">x2</text>
<polyline fill="none" stroke="black" points="37.38,-111.25 37.38,-146.5"/>
<text text-anchor="middle" x="88.12" y="-124.2" font-family="Times,serif" font-size="14.00">data 0.0000</text>
<polyline fill="none" stroke="black" points="138.88,-111.25 138.88,-146.5"/>
<text text-anchor="middle" x="190.38" y="-124.2" font-family="Times,serif" font-size="14.00">grad 0.5000</text>
</g>
<!-- 140100782709712&#45;&gt;140102975582176* -->
<g id="edge13" class="edge">
<title>140100782709712&#45;&gt;140102975582176*</title>
<path fill="none" stroke="black" d="M241.83,-128.5C252.18,-128.5 262.06,-128.5 270.87,-128.5"/>
<polygon fill="black" stroke="black" points="270.8,-132 280.8,-128.5 270.8,-125 270.8,-132"/>
</g>
<!-- 140102975582176 -->
<g id="node14" class="node">
<title>140102975582176</title>
<polygon fill="none" stroke="black" points="374.25,-110.5 374.25,-146.5 639.75,-146.5 639.75,-110.5 374.25,-110.5"/>
<text text-anchor="middle" x="404.75" y="-124.2" font-family="Times,serif" font-size="14.00">x2*w2</text>
<polyline fill="none" stroke="black" points="435.25,-111.25 435.25,-146.5"/>
<text text-anchor="middle" x="486" y="-124.2" font-family="Times,serif" font-size="14.00">data 0.0000</text>
<polyline fill="none" stroke="black" points="536.75,-111.25 536.75,-146.5"/>
<text text-anchor="middle" x="588.25" y="-124.2" font-family="Times,serif" font-size="14.00">grad 0.5000</text>
</g>
<!-- 140102975582176&#45;&gt;140102975573104+ -->
<g id="edge10" class="edge">
<title>140102975582176&#45;&gt;140102975573104+</title>
<path fill="none" stroke="black" d="M633.79,-110.53C645.93,-108.8 657.44,-107.15 667.5,-105.71"/>
<polygon fill="black" stroke="black" points="667.8,-109.06 677.2,-104.19 666.81,-102.14 667.8,-109.06"/>
</g>
<!-- 140102975582176*&#45;&gt;140102975582176 -->
<g id="edge5" class="edge">
<title>140102975582176*&#45;&gt;140102975582176</title>
<path fill="none" stroke="black" d="M336.43,-128.5C344.34,-128.5 353.62,-128.5 363.69,-128.5"/>
<polygon fill="black" stroke="black" points="363.44,-132 373.44,-128.5 363.44,-125 363.44,-132"/>
</g>
</g>
</svg>
